<svg xmlns="http://www.w3.org/2000/svg" xmlns:xlink="http://www.w3.org/1999/xlink" width="500" zoomAndPan="magnify" viewBox="0 0 375 374.999991" height="500" preserveAspectRatio="xMidYMid meet" version="1.0"><defs><clipPath id="3d07122dfc"><path d="M 32 27.890625 L 342 27.890625 L 342 83 L 32 83 Z M 32 27.890625 " clip-rule="nonzero"/></clipPath></defs><path fill="#ffffff" d="M 247.214844 277.113281 L 221.75 262.394531 L 212.414062 257.007812 L 212.414062 297.21875 L 175.054688 297.21875 L 175.054688 258.78125 L 165.71875 264.738281 L 142.671875 279.480469 L 122.566406 248.035156 L 148.964844 231.160156 L 157.796875 225.488281 L 148.703125 220.222656 L 121.5625 204.570312 L 140.253906 172.234375 L 165.71875 186.929688 L 175.054688 192.339844 L 175.054688 152.128906 L 212.414062 152.128906 L 212.414062 190.566406 L 221.75 184.609375 L 244.773438 169.839844 L 264.902344 201.316406 L 238.527344 218.1875 L 229.671875 223.859375 L 238.765625 229.101562 L 265.882812 244.777344 Z M 247.621094 223.453125 L 277.800781 204.140625 L 247.621094 156.964844 L 221.75 173.503906 L 221.75 142.796875 L 165.71875 142.796875 L 165.71875 176.160156 L 136.832031 159.476562 L 108.828125 207.992188 L 139.847656 225.894531 L 109.667969 245.210938 L 139.847656 292.382812 L 165.71875 275.820312 L 165.71875 306.550781 L 221.75 306.550781 L 221.75 273.1875 L 250.636719 289.871094 L 278.640625 241.355469 L 247.621094 223.453125 " fill-opacity="1" fill-rule="nonzero"/><path fill="#ffffff" d="M 189.054688 277.78125 L 189.128906 281.421875 C 189.152344 282.449219 189.75 283.3125 190.515625 283.335938 C 191.328125 283.359375 192 282.496094 192.023438 281.421875 L 192.191406 273.09375 C 191.808594 273.449219 191.496094 273.808594 191.210938 274.167969 C 190.394531 275.175781 189.652344 276.394531 189.054688 277.78125 " fill-opacity="1" fill-rule="nonzero"/><path fill="#ffffff" d="M 206.933594 201.722656 C 206.765625 202.65625 205.738281 202.082031 204.445312 201.625 C 203.152344 201.171875 202.050781 201.003906 202.21875 200.070312 C 202.386719 199.136719 203.605469 198.753906 204.898438 199.207031 C 206.191406 199.664062 207.125 200.789062 206.933594 201.722656 Z M 215.238281 203.277344 C 215.214844 202.796875 215.070312 202.273438 214.808594 201.699219 C 213.300781 198.441406 209.972656 198.371094 207.582031 197.246094 C 205.523438 196.289062 203.800781 194.0625 201.644531 193.390625 C 199.179688 192.601562 196.332031 192.699219 193.792969 192.578125 L 193.84375 189.085938 L 193.960938 184.011719 C 193.960938 183.9375 193.960938 183.84375 193.960938 183.746094 C 193.914062 181.1875 192.335938 179.175781 190.46875 179.246094 C 188.601562 179.320312 187.117188 181.449219 187.164062 184.011719 L 187.285156 189.394531 L 187.332031 192.914062 C 186.878906 192.984375 186.375 193.082031 185.894531 193.199219 C 185.5625 193.296875 185.273438 193.367188 184.914062 193.464844 L 183.839844 193.847656 C 182.402344 194.445312 180.964844 195.210938 179.625 196.433594 C 178.285156 197.652344 177.039062 199.160156 176.082031 200.957031 C 175.101562 202.75 174.410156 204.761719 173.953125 206.820312 C 173.09375 210.960938 173.285156 215.027344 173.953125 218.644531 C 174.3125 220.507812 174.816406 222.328125 175.484375 224.003906 C 176.15625 225.65625 176.921875 227.234375 177.78125 228.597656 C 179.53125 231.375 181.515625 233.53125 183.527344 235.324219 C 185.105469 236.738281 186.6875 237.910156 188.265625 238.984375 C 188.71875 239.320312 189.175781 239.632812 189.628906 239.917969 C 190.730469 240.636719 191.785156 241.332031 192.8125 242 C 193.675781 242.578125 194.511719 243.175781 195.300781 243.773438 C 197.027344 245.136719 198.582031 246.621094 199.753906 248.441406 C 200.28125 249.230469 200.664062 250.089844 200.902344 251 C 201.117188 251.933594 201.238281 252.890625 201.117188 253.824219 C 200.949219 255.738281 199.96875 257.65625 198.558594 259.066406 C 197.121094 260.503906 195.136719 261.507812 193.050781 262.824219 C 192.835938 262.945312 192.621094 263.113281 192.382812 263.253906 L 192.453125 259.355469 L 192.71875 245.855469 C 191.855469 245.234375 190.921875 244.632812 189.941406 244.011719 C 189.488281 243.703125 189.007812 243.390625 188.503906 243.078125 C 188.457031 243.03125 188.410156 243.007812 188.363281 242.960938 L 188.746094 262.082031 L 188.816406 266.34375 C 188.21875 266.988281 187.667969 267.660156 187.164062 268.425781 C 185.488281 270.84375 184.292969 273.738281 183.480469 276.730469 C 183.070312 278.238281 182.761719 279.792969 182.546875 281.324219 C 182.332031 282.878906 182.210938 284.4375 182.113281 285.992188 C 182.089844 286.78125 182.496094 287.476562 183.097656 287.597656 C 183.695312 287.714844 184.246094 287.117188 184.339844 286.28125 C 184.84375 280.964844 186.351562 275.84375 188.9375 272.300781 C 189.105469 272.039062 189.269531 271.824219 189.460938 271.609375 C 190.179688 270.699219 190.996094 269.957031 191.808594 269.285156 C 191.953125 269.167969 192.121094 269.046875 192.261719 268.925781 C 192.980469 268.425781 193.722656 268.019531 194.511719 267.609375 C 196.453125 266.628906 198.699219 265.839844 200.925781 263.996094 C 202.027344 263.085938 203.082031 261.890625 203.964844 260.40625 C 204.851562 258.945312 205.546875 257.105469 205.855469 255.140625 C 206.214844 253.179688 206.167969 251.074219 205.808594 249.109375 C 205.449219 247.148438 204.78125 245.351562 203.917969 243.820312 C 202.363281 240.972656 200.375 238.769531 198.4375 236.953125 C 196.59375 235.253906 194.726562 233.839844 193.003906 232.453125 L 193.078125 228.457031 L 193.4375 209.785156 C 191.710938 209.476562 190.132812 209.285156 188.671875 209.355469 C 188.3125 209.355469 188.003906 209.378906 187.691406 209.429688 L 187.953125 223.523438 L 188.050781 228.097656 C 186.28125 226.300781 184.722656 224.363281 183.621094 222.234375 C 182.617188 220.34375 182.019531 218.355469 181.757812 216.25 C 181.492188 214.070312 181.589844 211.964844 182.066406 210.386719 C 182.546875 208.804688 183.265625 207.730469 184.316406 206.988281 C 184.84375 206.605469 185.464844 206.363281 186.136719 206.171875 L 186.664062 206.054688 C 186.855469 206.03125 187.070312 206.003906 187.285156 205.957031 C 187.378906 205.957031 187.5 205.933594 187.621094 205.910156 C 187.929688 205.886719 188.242188 205.863281 188.578125 205.839844 C 190.132812 205.789062 191.785156 205.957031 193.507812 206.269531 C 194.296875 206.414062 195.109375 206.554688 195.949219 206.722656 C 196.019531 206.746094 196.09375 206.769531 196.164062 206.769531 C 196.835938 206.9375 197.527344 207.082031 198.199219 207.25 C 199.660156 207.632812 201.09375 208.230469 202.53125 208.519531 C 205.449219 209.09375 208.441406 208.902344 211.289062 207.730469 C 212.917969 207.058594 215.40625 205.742188 215.238281 203.277344 " fill-opacity="1" fill-rule="nonzero"/><g clip-path="url(#3d07122dfc)"><path fill="#ffffff" d="M 187.210938 82.867188 C 137.429688 82.867188 87.050781 82.867188 37.292969 82.867188 C 31.882812 82.867188 31.882812 70.875 32.503906 67.261719 C 33.078125 61.875 36.09375 58.859375 40.285156 55.871094 C 45.09375 52.277344 46.890625 48.066406 47.488281 42.082031 C 48.085938 37.273438 49.882812 33.085938 53.496094 30.691406 C 55.265625 28.894531 58.28125 27.699219 60.675781 27.699219 C 90.664062 27.699219 120.652344 27.699219 150.019531 27.699219 C 156.625 27.699219 162.011719 33.085938 163.207031 40.289062 C 163.804688 42.683594 163.804688 45.074219 164.402344 46.871094 C 166.222656 52.878906 169.214844 54.671875 175.820312 54.671875 C 227.375 54.671875 278.949219 54.671875 329.90625 54.671875 C 335.914062 55.269531 338.90625 58.859375 340.699219 64.867188 C 341.921875 68.457031 343.691406 82.867188 338.304688 82.867188 C 323.921875 82.867188 308.941406 82.867188 294.53125 82.867188 C 258.558594 82.867188 223.183594 82.867188 187.210938 82.867188 " fill-opacity="1" fill-rule="nonzero"/></g><path fill="#ffffff" d="M 19.914062 139.230469 L 30.6875 309.519531 L 30.6875 310.117188 C 30.6875 319.117188 37.890625 326.917969 47.488281 326.917969 L 326.914062 326.917969 C 335.914062 326.917969 343.691406 319.714844 343.691406 310.117188 L 343.691406 309.519531 L 354.507812 139.230469 C 354.507812 130.230469 346.707031 123.027344 337.707031 123.027344 L 36.09375 123.027344 C 27.097656 123.027344 19.914062 130.230469 19.914062 139.230469 Z M 326.914062 346.6875 L 47.488281 346.6875 C 27.695312 346.6875 11.515625 330.507812 10.894531 310.714844 L 0.0976562 139.828125 L 0.0976562 139.230469 C 0.0976562 119.4375 16.300781 102.636719 36.695312 102.636719 L 338.304688 102.636719 C 358.101562 102.636719 374.902344 118.839844 374.902344 139.230469 L 374.902344 139.828125 L 364.105469 310.117188 C 363.484375 330.507812 346.707031 346.6875 326.914062 346.6875 " fill-opacity="1" fill-rule="nonzero"/></svg>