<svg xmlns="http://www.w3.org/2000/svg" xmlns:xlink="http://www.w3.org/1999/xlink" width="500" zoomAndPan="magnify" viewBox="0 0 375 374.999991" height="500" preserveAspectRatio="xMidYMid meet" version="1.0"><defs><clipPath id="c171f94bc0"><path d="M 12.65625 55 L 173 55 L 173 151 L 12.65625 151 Z M 12.65625 55 " clip-rule="nonzero"/></clipPath><clipPath id="32906989b3"><path d="M 202.691406 55.085938 L 362.15625 55.085938 L 362.15625 150.609375 L 202.691406 150.609375 Z M 202.691406 55.085938 " clip-rule="nonzero"/></clipPath><clipPath id="1d7bf30f3c"><path d="M 179.320312 57.117188 L 195.578125 57.117188 L 195.578125 374.832031 L 179.320312 374.832031 Z M 179.320312 57.117188 " clip-rule="nonzero"/></clipPath></defs><g clip-path="url(#c171f94bc0)"><path fill="#64b5f6" d="M 22.128906 105.609375 C 27.0625 106.398438 71.140625 111.503906 147.65625 57.214844 L 152.050781 63.394531 L 147.652344 57.191406 C 151.039062 54.789062 155.71875 55.550781 158.167969 58.882812 C 159.632812 60.605469 165.476562 67.605469 172.089844 77.050781 L 172.089844 150.28125 C 147.359375 150.011719 12.65625 146.984375 12.65625 112.980469 C 12.65625 108.785156 16.0625 105.378906 20.257812 105.378906 C 20.902344 105.378906 21.527344 105.460938 22.128906 105.609375 " fill-opacity="1" fill-rule="nonzero"/></g><g clip-path="url(#32906989b3)"><path fill="#64b5f6" d="M 222.945312 63.394531 L 227.339844 57.214844 C 303.855469 111.503906 347.933594 106.398438 352.871094 105.609375 C 353.46875 105.460938 354.097656 105.378906 354.738281 105.378906 C 358.933594 105.378906 362.339844 108.785156 362.339844 112.980469 C 362.339844 146.984375 227.636719 150.011719 202.90625 150.28125 L 202.90625 77.050781 C 209.519531 67.605469 215.367188 60.605469 216.824219 58.882812 C 219.277344 55.550781 223.957031 54.789062 227.34375 57.191406 L 222.945312 63.394531 " fill-opacity="1" fill-rule="nonzero"/></g><path fill="#ffffff" d="M 187.5 0.207031 C 196.445312 0.207031 204.542969 3.835938 210.40625 9.699219 C 216.269531 15.5625 219.898438 23.660156 219.898438 32.605469 C 219.898438 41.550781 216.269531 49.648438 210.40625 55.511719 C 204.542969 61.375 196.445312 65 187.5 65 C 178.554688 65 170.453125 61.375 164.589844 55.511719 C 158.730469 49.648438 155.101562 41.550781 155.101562 32.605469 C 155.101562 23.660156 158.730469 15.5625 164.589844 9.699219 C 170.453125 3.835938 178.554688 0.207031 187.5 0.207031 " fill-opacity="1" fill-rule="nonzero"/><g clip-path="url(#1d7bf30f3c)"><path fill="#ffffff" d="M 195.097656 65.566406 C 195.097656 61.371094 191.695312 57.964844 187.5 57.964844 C 183.300781 57.964844 179.894531 61.371094 179.894531 65.566406 L 179.894531 336.726562 C 179.894531 336.855469 179.898438 336.984375 179.90625 337.109375 L 179.894531 337.109375 L 179.910156 337.171875 C 180.421875 346.015625 185.53125 365.078125 187.5 374.832031 C 189.464844 365.078125 194.574219 346.015625 195.085938 337.171875 L 195.097656 337.109375 L 195.089844 337.109375 C 195.097656 336.984375 195.097656 336.855469 195.097656 336.726562 L 195.097656 65.566406 " fill-opacity="1" fill-rule="nonzero"/></g><path fill="#ffffff" d="M 199.601562 357.773438 C 199.601562 357.773438 218.390625 343.695312 203.65625 327.472656 C 191.460938 315.320312 163.996094 315.078125 159.09375 293.84375 C 152.84375 261.121094 194.488281 261.636719 218.652344 241.351562 C 218.652344 241.351562 226.875 231.085938 214.066406 219.652344 C 192.324219 201.851562 113.710938 205.566406 116.214844 172.554688 C 116.691406 166.285156 118.25 163.039062 123.585938 159.480469 C 127.699219 156.730469 135.085938 154.84375 143.292969 154.449219 C 143.292969 154.449219 173.5 151.125 176.0625 164.027344 L 175.527344 166.574219 L 159.304688 165.59375 C 159.304688 165.59375 162.402344 170.09375 174.996094 170.578125 C 174.996094 170.578125 172.753906 176.933594 155.675781 172.242188 C 155.675781 172.242188 147.347656 169.699219 141.582031 163.738281 C 141.582031 163.738281 130.699219 164.910156 129.308594 169.507812 C 129.308594 169.507812 126.003906 180.550781 149.804688 184.949219 C 182.460938 194.355469 234.144531 195.277344 236.011719 231.050781 C 236.402344 238.503906 234.246094 244.550781 228.566406 249.855469 C 208.035156 269.054688 136.859375 282.488281 186.953125 307.527344 C 186.953125 307.527344 208.941406 314.171875 214.492188 329.71875 C 214.492188 329.71875 220.574219 352.886719 199.601562 357.773438 Z M 159.867188 157.558594 C 158.515625 157.558594 157.417969 158.054688 157.417969 158.667969 C 157.417969 159.285156 158.515625 159.78125 159.867188 159.78125 C 161.222656 159.78125 162.316406 159.285156 162.316406 158.667969 C 162.316406 158.054688 161.222656 157.558594 159.867188 157.558594 " fill-opacity="1" fill-rule="evenodd"/><path fill="#ffffff" d="M 176.949219 357.773438 C 176.949219 357.773438 158.164062 343.695312 172.890625 327.472656 C 185.085938 315.320312 212.554688 315.078125 217.457031 293.84375 C 223.703125 261.121094 182.0625 261.636719 157.894531 241.351562 C 157.894531 241.351562 149.671875 231.085938 162.484375 219.652344 C 184.226562 201.851562 262.835938 205.566406 260.332031 172.554688 C 259.859375 166.285156 258.300781 163.039062 252.964844 159.480469 C 248.851562 156.730469 241.464844 154.84375 233.253906 154.449219 C 233.253906 154.449219 203.046875 151.125 200.484375 164.027344 L 201.023438 166.574219 L 217.246094 165.59375 C 217.246094 165.59375 214.148438 170.09375 201.554688 170.578125 C 201.554688 170.578125 203.796875 176.933594 220.875 172.242188 C 220.875 172.242188 229.203125 169.699219 234.964844 163.738281 C 234.964844 163.738281 245.851562 164.910156 247.242188 169.507812 C 247.242188 169.507812 250.546875 180.550781 226.746094 184.949219 C 194.09375 194.355469 142.40625 195.277344 140.539062 231.050781 C 140.152344 238.503906 142.300781 244.550781 147.984375 249.855469 C 168.515625 269.054688 239.691406 282.488281 189.597656 307.527344 C 189.597656 307.527344 167.609375 314.171875 162.058594 329.71875 C 162.058594 329.71875 155.972656 352.886719 176.949219 357.773438 Z M 216.683594 157.558594 C 218.035156 157.558594 219.132812 158.054688 219.132812 158.667969 C 219.132812 159.285156 218.035156 159.78125 216.683594 159.78125 C 215.328125 159.78125 214.234375 159.285156 214.234375 158.667969 C 214.234375 158.054688 215.328125 157.558594 216.683594 157.558594 " fill-opacity="1" fill-rule="evenodd"/></svg>